<svg xmlns="http://www.w3.org/2000/svg" viewBox="0 0 1200 700">
  <defs>
    <linearGradient id="bg" x1="0" y1="0" x2="1" y2="1"><stop stop-color="#101714"/><stop offset="1" stop-color="#1c2822"/></linearGradient>
    <pattern id="grid" width="36" height="36" patternUnits="userSpaceOnUse"><path d="M36 0H0V36" fill="none" stroke="#33433a" stroke-width="1"/></pattern>
  </defs>
  <rect width="1200" height="700" fill="url(#bg)"/>
  <rect width="1200" height="700" fill="url(#grid)" opacity=".65"/>
  <text x="72" y="92" fill="#a8f26d" font-family="monospace" font-size="22" font-weight="700" letter-spacing="4">DMP CAPABILITY LAB</text>
  <text x="72" y="162" fill="#f2f6f3" font-family="Arial, sans-serif" font-size="50" font-weight="800">营销 SOP 如何变成 Agent 系统</text>
  <g transform="translate(72 228)">
    <rect width="300" height="120" rx="16" fill="#18221d" stroke="#53665a"/>
    <text x="28" y="40" fill="#9eaaa3" font-family="monospace" font-size="14">HOST MODEL</text>
    <text x="28" y="82" fill="#f2f6f3" font-family="Arial, sans-serif" font-size="26" font-weight="700">理解 · 研究 · 生成</text>
    <path d="M300 60H408" stroke="#a8f26d" stroke-width="3"/>
    <path d="m397 50 12 10-12 10" fill="none" stroke="#a8f26d" stroke-width="3"/>
  </g>
  <g transform="translate(480 218)">
    <rect width="640" height="140" rx="18" fill="#111916" stroke="#4e5e55"/>
    <g transform="translate(24 24)">
      <rect width="180" height="92" rx="12" fill="#21331d"/>
      <text x="20" y="38" fill="#a8f26d" font-family="monospace" font-size="27" font-weight="800">163</text>
      <text x="20" y="68" fill="#c6d0ca" font-family="Arial, sans-serif" font-size="16">Skills / 流程</text>
    </g>
    <g transform="translate(228 24)">
      <rect width="180" height="92" rx="12" fill="#1b2922"/>
      <text x="20" y="38" fill="#a8f26d" font-family="monospace" font-size="27" font-weight="800">93</text>
      <text x="20" y="68" fill="#c6d0ca" font-family="Arial, sans-serif" font-size="16">Python / 工具</text>
    </g>
    <g transform="translate(432 24)">
      <rect width="180" height="92" rx="12" fill="#222b26"/>
      <text x="20" y="38" fill="#a8f26d" font-family="monospace" font-size="27" font-weight="800">24</text>
      <text x="20" y="68" fill="#c6d0ca" font-family="Arial, sans-serif" font-size="16">Agents / 角色</text>
    </g>
  </g>
  <g transform="translate(72 430)" font-family="Arial, sans-serif">
    <rect width="1048" height="120" rx="16" fill="#f0f6ec"/>
    <text x="28" y="38" fill="#55635b" font-family="monospace" font-size="13">TASK FLOW</text>
    <g transform="translate(28 58)" fill="#111816" font-size="18" font-weight="700">
      <text x="0">需求</text><text x="140">Skill 路由</text><text x="325">品牌上下文</text><text x="540">Python 门禁</text><text x="745">人工审批</text><text x="925">执行</text>
    </g>
    <path d="M76 87H154m138 0h90m154 0h84m145 0h75m120 0h41" stroke="#68bd39" stroke-width="3" stroke-dasharray="6 7"/>
  </g>
  <text x="72" y="630" fill="#93a099" font-family="monospace" font-size="17">不是新的营销模型 · 是营销机构 SOP、计算工具和质量门禁</text>
</svg>
